<svg id="svg" version="1.1" xmlns="http://www.w3.org/2000/svg" xmlns:xlink="http://www.w3.org/1999/xlink" width="400" height="436.6056572379368" viewBox="0, 0, 400,436.6056572379368"><g id="svgg"><path id="path0" d="M399.344 0.700 C 399.397 1.365,391.181 1.405,232.700 1.500 L 66.000 1.601 66.000 9.000 L 66.000 16.400 232.800 16.400 C 380.800 16.400,399.600 16.468,399.600 17.000 C 399.600 17.532,380.800 17.600,232.800 17.600 L 66.000 17.600 66.000 25.000 L 66.000 32.399 232.700 32.500 C 380.566 32.589,399.400 32.668,399.400 33.200 C 399.400 33.732,380.566 33.811,232.700 33.900 L 66.000 34.001 66.000 41.200 L 66.000 48.399 232.695 48.500 C 391.087 48.595,399.396 48.635,399.524 49.300 C 399.652 49.966,391.499 50.000,232.829 50.000 L 66.000 50.000 66.000 57.400 L 66.000 64.799 232.667 64.900 C 365.573 64.980,399.367 65.101,399.500 65.500 C 399.633 65.899,366.122 66.000,232.833 66.000 L 66.000 66.000 66.000 73.400 L 66.000 80.799 232.667 80.900 C 365.573 80.980,399.367 81.101,399.500 81.500 C 399.633 81.899,366.120 82.000,232.825 82.000 L 65.982 82.000 66.091 89.500 L 66.200 97.000 232.933 97.100 C 366.022 97.181,399.633 97.302,399.500 97.700 C 399.367 98.099,365.488 98.220,232.667 98.300 L 66.000 98.401 66.000 105.600 L 66.000 112.799 232.695 112.900 C 391.044 112.995,399.396 113.035,399.524 113.700 C 399.652 114.365,391.430 114.404,232.929 114.500 L 66.200 114.600 66.091 121.900 L 65.982 129.199 232.658 129.300 C 365.486 129.380,399.367 129.501,399.500 129.900 C 399.633 130.298,366.022 130.419,232.933 130.500 L 66.200 130.600 66.091 138.100 L 65.982 145.600 232.825 145.600 C 366.120 145.600,399.633 145.701,399.500 146.100 C 399.367 146.499,365.573 146.620,232.667 146.700 L 66.000 146.801 66.000 154.200 L 66.000 161.600 232.829 161.600 C 391.499 161.600,399.652 161.634,399.524 162.300 C 399.396 162.965,391.087 163.005,232.695 163.100 L 66.000 163.201 66.000 170.400 L 66.000 177.599 232.700 177.700 C 380.566 177.789,399.400 177.868,399.400 178.400 C 399.400 178.932,380.566 179.011,232.700 179.100 L 66.000 179.201 66.000 186.600 L 66.000 194.000 232.833 194.000 C 366.122 194.000,399.633 194.101,399.500 194.500 C 399.367 194.899,365.573 195.020,232.667 195.100 L 66.000 195.201 66.000 202.600 L 66.000 209.999 232.600 210.100 C 343.333 210.166,399.200 210.334,399.200 210.600 C 399.200 210.866,343.333 211.034,232.600 211.100 L 66.000 211.201 66.000 218.600 L 66.000 226.000 232.533 226.000 C 324.127 226.000,399.174 226.108,399.306 226.239 C 400.700 227.633,404.487 227.602,232.657 227.599 L 66.200 227.596 66.091 234.797 L 65.982 241.999 232.691 242.100 C 380.565 242.189,399.400 242.268,399.400 242.800 C 399.400 243.332,380.565 243.411,232.691 243.500 L 65.982 243.601 66.091 250.803 L 66.200 258.004 232.657 258.001 C 407.741 257.998,399.600 257.928,399.600 259.433 C 399.600 259.525,324.540 259.600,232.800 259.600 L 66.000 259.600 66.000 267.000 L 66.000 274.399 232.667 274.500 C 365.573 274.580,399.367 274.701,399.500 275.100 C 399.633 275.499,366.122 275.600,232.833 275.600 L 66.000 275.600 66.000 283.000 L 66.000 290.399 232.700 290.500 C 380.566 290.589,399.400 290.668,399.400 291.200 C 399.400 291.732,380.533 291.823,232.800 292.000 L 66.200 292.200 66.200 299.400 L 66.200 306.600 232.929 306.700 C 391.430 306.796,399.652 306.835,399.524 307.500 C 399.396 308.165,391.044 308.205,232.695 308.300 L 66.000 308.401 66.000 315.800 L 66.000 323.200 232.800 323.200 C 343.601 323.200,399.600 323.334,399.600 323.600 C 399.600 323.865,343.567 324.033,232.900 324.100 L 66.200 324.200 66.091 331.700 L 65.982 339.200 232.825 339.200 C 366.120 339.200,399.633 339.301,399.500 339.700 C 399.367 340.099,365.594 340.220,232.767 340.298 L 66.200 340.397 66.091 347.798 L 65.982 355.200 232.825 355.200 C 366.120 355.200,399.633 355.301,399.500 355.700 C 399.367 356.099,365.522 356.241,232.767 356.400 L 66.200 356.600 66.200 363.800 L 66.200 371.000 232.929 371.100 C 391.430 371.196,399.652 371.235,399.524 371.900 C 399.396 372.565,391.044 372.605,232.695 372.700 L 66.000 372.801 66.000 380.000 L 66.000 387.199 232.700 387.300 C 380.566 387.389,399.400 387.468,399.400 388.000 C 399.400 388.532,380.566 388.611,232.700 388.700 L 66.000 388.801 66.000 396.200 L 66.000 403.600 232.833 403.600 C 366.122 403.600,399.633 403.701,399.500 404.100 C 399.367 404.499,365.573 404.620,232.667 404.700 L 66.000 404.801 66.000 412.200 L 66.000 419.599 232.700 419.700 C 380.566 419.789,399.400 419.868,399.400 420.400 C 399.400 420.932,380.566 421.011,232.700 421.100 L 66.000 421.201 66.000 428.400 L 66.000 435.600 232.520 435.600 C 361.502 435.600,399.148 435.708,399.520 436.080 C 399.893 436.453,400.000 388.053,400.000 218.280 C 400.000 91.217,399.851 0.000,399.644 0.000 C 399.449 0.000,399.314 0.315,399.344 0.700 M0.000 9.000 L 0.000 16.400 32.200 16.400 L 64.400 16.400 64.400 9.000 L 64.400 1.600 32.200 1.600 L 0.000 1.600 0.000 9.000 M0.000 25.000 L 0.000 32.400 32.200 32.400 L 64.400 32.400 64.400 25.000 L 64.400 17.600 32.200 17.600 L 0.000 17.600 0.000 25.000 M0.000 41.200 L 0.000 48.400 32.200 48.400 L 64.400 48.400 64.400 41.200 L 64.400 34.000 32.200 34.000 L 0.000 34.000 0.000 41.200 M0.000 57.400 L 0.000 64.800 32.200 64.800 L 64.400 64.800 64.400 57.400 L 64.400 50.000 32.200 50.000 L 0.000 50.000 0.000 57.400 M0.000 73.400 L 0.000 80.800 32.200 80.800 L 64.400 80.800 64.400 73.400 L 64.400 66.000 32.200 66.000 L 0.000 66.000 0.000 73.400 M0.000 89.600 L 0.000 97.200 32.200 97.200 L 64.400 97.200 64.400 89.600 L 64.400 82.000 32.200 82.000 L 0.000 82.000 0.000 89.600 M0.000 105.600 L 0.000 112.800 32.200 112.800 L 64.400 112.800 64.400 105.600 L 64.400 98.400 32.200 98.400 L 0.000 98.400 0.000 105.600 M0.000 121.800 L 0.000 129.200 32.200 129.200 L 64.400 129.200 64.400 121.800 L 64.400 114.400 32.200 114.400 L 0.000 114.400 0.000 121.800 M0.000 138.000 L 0.000 145.600 32.200 145.600 L 64.400 145.600 64.400 138.000 L 64.400 130.400 32.200 130.400 L 0.000 130.400 0.000 138.000 M0.000 154.200 L 0.000 161.600 32.200 161.600 L 64.400 161.600 64.400 154.200 L 64.400 146.800 32.200 146.800 L 0.000 146.800 0.000 154.200 M32.100 163.100 L 0.000 163.205 0.000 170.402 L 0.000 177.600 32.200 177.600 L 64.400 177.600 64.400 170.200 C 64.400 166.130,64.355 162.844,64.300 162.898 C 64.245 162.951,49.755 163.042,32.100 163.100 M0.000 186.600 L 0.000 194.000 32.200 194.000 L 64.400 194.000 64.400 186.600 L 64.400 179.200 32.200 179.200 L 0.000 179.200 0.000 186.600 M0.000 202.600 L 0.000 210.000 32.200 210.000 L 64.400 210.000 64.400 202.600 L 64.400 195.200 32.200 195.200 L 0.000 195.200 0.000 202.600 M0.000 218.600 L 0.000 226.000 32.200 226.000 L 64.400 226.000 64.400 218.600 L 64.400 211.200 32.200 211.200 L 0.000 211.200 0.000 218.600 M31.900 227.500 L 0.000 227.605 0.000 234.802 L 0.000 242.000 32.200 242.000 L 64.400 242.000 64.400 234.600 C 64.400 230.530,64.265 227.244,64.100 227.298 C 63.935 227.351,49.445 227.442,31.900 227.500 M0.000 250.800 L 0.000 258.000 31.567 258.000 C 48.929 258.000,63.419 258.109,63.767 258.243 C 64.330 258.459,64.400 257.665,64.400 251.043 L 64.400 243.600 32.200 243.600 L 0.000 243.600 0.000 250.800 M0.000 267.000 L 0.000 274.400 32.200 274.400 L 64.400 274.400 64.400 267.000 L 64.400 259.600 32.200 259.600 L 0.000 259.600 0.000 267.000 M0.000 283.000 L 0.000 290.400 32.200 290.400 L 64.400 290.400 64.400 283.000 L 64.400 275.600 32.200 275.600 L 0.000 275.600 0.000 283.000 M0.000 299.400 L 0.000 306.800 32.200 306.800 L 64.400 306.800 64.400 299.400 L 64.400 292.000 32.200 292.000 L 0.000 292.000 0.000 299.400 M32.100 308.300 L 0.000 308.405 0.000 315.802 L 0.000 323.200 32.200 323.200 L 64.400 323.200 64.400 315.600 C 64.400 311.420,64.355 308.044,64.300 308.098 C 64.245 308.151,49.755 308.242,32.100 308.300 M0.000 331.600 L 0.000 339.200 32.200 339.200 L 64.400 339.200 64.400 331.600 L 64.400 324.000 32.200 324.000 L 0.000 324.000 0.000 331.600 M32.100 340.300 L 0.000 340.405 0.000 347.802 L 0.000 355.200 32.200 355.200 L 64.400 355.200 64.400 347.600 C 64.400 343.420,64.355 340.044,64.300 340.098 C 64.245 340.151,49.755 340.242,32.100 340.300 M0.000 363.800 L 0.000 371.200 32.200 371.200 L 64.400 371.200 64.400 363.800 L 64.400 356.400 32.200 356.400 L 0.000 356.400 0.000 363.800 M0.000 379.995 L 0.000 387.191 32.200 387.295 L 64.400 387.400 64.400 380.100 L 64.400 372.800 32.200 372.800 L 0.000 372.800 0.000 379.995 M0.000 396.200 L 0.000 403.600 32.200 403.600 L 64.400 403.600 64.400 396.200 L 64.400 388.800 32.200 388.800 L 0.000 388.800 0.000 396.200 M0.000 412.200 L 0.000 419.600 32.200 419.600 L 64.400 419.600 64.400 412.200 L 64.400 404.800 32.200 404.800 L 0.000 404.800 0.000 412.200 M0.000 428.400 L 0.000 435.600 32.200 435.600 L 64.400 435.600 64.400 428.400 L 64.400 421.200 32.200 421.200 L 0.000 421.200 0.000 428.400 " stroke="none" fill="#fbfbfc" fill-rule="evenodd"></path><path id="path1" d="M16.100 1.100 C 25.065 1.160,39.735 1.160,48.700 1.100 C 57.665 1.040,50.330 0.991,32.400 0.991 C 14.470 0.991,7.135 1.040,16.100 1.100 M149.067 1.100 C 194.864 1.156,269.924 1.156,315.867 1.100 C 361.810 1.044,324.340 0.998,232.600 0.998 C 140.860 0.998,103.270 1.044,149.067 1.100 M16.100 17.100 C 25.065 17.160,39.735 17.160,48.700 17.100 C 57.665 17.040,50.330 16.991,32.400 16.991 C 14.470 16.991,7.135 17.040,16.100 17.100 M149.067 17.100 C 194.864 17.156,269.924 17.156,315.867 17.100 C 361.810 17.044,324.340 16.998,232.600 16.998 C 140.860 16.998,103.270 17.044,149.067 17.100 M16.100 33.100 C 25.065 33.160,39.735 33.160,48.700 33.100 C 57.665 33.040,50.330 32.991,32.400 32.991 C 14.470 32.991,7.135 33.040,16.100 33.100 M149.067 33.100 C 194.864 33.156,269.924 33.156,315.867 33.100 C 361.810 33.044,324.340 32.998,232.600 32.998 C 140.860 32.998,103.270 33.044,149.067 33.100 M16.100 49.500 C 25.065 49.560,39.735 49.560,48.700 49.500 C 57.665 49.440,50.330 49.391,32.400 49.391 C 14.470 49.391,7.135 49.440,16.100 49.500 M149.067 49.500 C 194.864 49.556,269.924 49.556,315.867 49.500 C 361.810 49.444,324.340 49.398,232.600 49.398 C 140.860 49.398,103.270 49.444,149.067 49.500 M11.400 65.493 C 41.682 65.769,64.800 65.772,64.800 65.500 C 64.800 65.335,50.175 65.242,32.300 65.294 C 14.425 65.345,5.020 65.435,11.400 65.493 M66.000 65.500 C 66.000 65.771,177.623 65.770,339.200 65.499 C 372.310 65.443,324.385 65.353,232.700 65.299 C 141.015 65.244,66.000 65.335,66.000 65.500 M16.100 81.500 C 25.065 81.560,39.735 81.560,48.700 81.500 C 57.665 81.440,50.330 81.391,32.400 81.391 C 14.470 81.391,7.135 81.440,16.100 81.500 M149.067 81.500 C 194.864 81.556,269.924 81.556,315.867 81.500 C 361.810 81.444,324.340 81.398,232.600 81.398 C 140.860 81.398,103.270 81.444,149.067 81.500 M15.930 113.900 C 24.801 113.960,39.201 113.960,47.930 113.900 C 56.658 113.840,49.400 113.791,31.800 113.791 C 14.200 113.791,7.058 113.840,15.930 113.900 M149.933 113.900 C 195.766 113.956,270.646 113.956,316.333 113.900 C 362.020 113.844,324.520 113.798,233.000 113.798 C 141.480 113.798,104.100 113.844,149.933 113.900 M0.000 129.996 C 0.000 130.265,10.828 130.400,32.400 130.400 C 53.227 130.400,64.800 130.260,64.800 130.009 C 64.800 129.758,53.218 129.613,32.400 129.605 C 10.819 129.596,0.000 129.726,0.000 129.996 M66.000 130.000 C 66.000 130.266,121.800 130.400,232.600 130.400 C 343.400 130.400,399.200 130.266,399.200 130.000 C 399.200 129.734,343.400 129.600,232.600 129.600 C 121.800 129.600,66.000 129.734,66.000 130.000 M-0.000 145.993 C -0.000 146.266,10.714 146.400,32.400 146.400 C 52.969 146.400,64.800 146.259,64.800 146.014 C 64.800 145.769,52.954 145.620,32.400 145.607 C 10.700 145.593,-0.000 145.721,-0.000 145.993 M66.000 146.002 C 66.000 146.265,122.328 146.400,232.600 146.400 C 343.661 146.400,399.200 146.266,399.200 145.999 C 399.200 145.732,343.663 145.599,232.600 145.601 C 122.330 145.603,66.000 145.738,66.000 146.002 M32.200 162.000 L -0.200 162.207 32.300 162.304 C 53.764 162.367,64.800 162.264,64.800 162.000 C 64.800 161.780,64.755 161.643,64.700 161.696 C 64.645 161.749,50.020 161.886,32.200 162.000 M149.067 162.300 C 194.864 162.356,269.924 162.356,315.867 162.300 C 361.810 162.244,324.340 162.198,232.600 162.198 C 140.860 162.198,103.270 162.244,149.067 162.300 M32.200 178.400 L -0.200 178.607 32.300 178.704 C 53.764 178.767,64.800 178.664,64.800 178.400 C 64.800 178.180,64.755 178.043,64.700 178.096 C 64.645 178.149,50.020 178.286,32.200 178.400 M149.067 178.700 C 194.864 178.756,269.924 178.756,315.867 178.700 C 361.810 178.644,324.340 178.598,232.600 178.598 C 140.860 178.598,103.270 178.644,149.067 178.700 M16.100 194.700 C 25.065 194.760,39.735 194.760,48.700 194.700 C 57.665 194.640,50.330 194.591,32.400 194.591 C 14.470 194.591,7.135 194.640,16.100 194.700 M149.067 194.700 C 194.864 194.756,269.924 194.756,315.867 194.700 C 361.810 194.644,324.340 194.598,232.600 194.598 C 140.860 194.598,103.270 194.644,149.067 194.700 M16.100 210.700 C 25.065 210.760,39.735 210.760,48.700 210.700 C 57.665 210.640,50.330 210.591,32.400 210.591 C 14.470 210.591,7.135 210.640,16.100 210.700 M149.067 210.700 C 194.864 210.756,269.924 210.756,315.867 210.700 C 361.810 210.644,324.340 210.598,232.600 210.598 C 140.860 210.598,103.270 210.644,149.067 210.700 M15.900 242.700 C 24.755 242.760,39.245 242.760,48.100 242.700 C 56.955 242.640,49.710 242.591,32.000 242.591 C 14.290 242.591,7.045 242.640,15.900 242.700 M149.067 242.700 C 194.864 242.756,269.924 242.756,315.867 242.700 C 361.810 242.644,324.340 242.598,232.600 242.598 C 140.860 242.598,103.270 242.644,149.067 242.700 M11.400 259.093 C 41.682 259.369,64.800 259.372,64.800 259.100 C 64.800 258.935,50.175 258.842,32.300 258.894 C 14.425 258.945,5.020 259.035,11.400 259.093 M149.067 259.100 C 194.864 259.156,269.924 259.156,315.867 259.100 C 361.810 259.044,324.340 258.998,232.600 258.998 C 140.860 258.998,103.270 259.044,149.067 259.100 M11.400 275.093 C 41.682 275.369,64.800 275.372,64.800 275.100 C 64.800 274.935,50.175 274.842,32.300 274.894 C 14.425 274.945,5.020 275.035,11.400 275.093 M149.067 275.100 C 194.864 275.156,269.924 275.156,315.867 275.100 C 361.810 275.044,324.340 274.998,232.600 274.998 C 140.860 274.998,103.270 275.044,149.067 275.100 M11.400 291.093 C 41.682 291.369,64.800 291.372,64.800 291.100 C 64.800 290.935,50.175 290.842,32.300 290.894 C 14.425 290.945,5.020 291.035,11.400 291.093 M149.067 291.100 C 194.864 291.156,269.924 291.156,315.867 291.100 C 361.810 291.044,324.340 290.998,232.600 290.998 C 140.860 290.998,103.270 291.044,149.067 291.100 M0.000 307.600 C 0.000 307.863,11.067 308.000,32.400 308.000 C 53.733 308.000,64.800 307.863,64.800 307.600 C 64.800 307.337,53.733 307.200,32.400 307.200 C 11.067 307.200,0.000 307.337,0.000 307.600 M66.000 307.600 C 66.000 307.866,121.800 308.000,232.600 308.000 C 343.400 308.000,399.200 307.866,399.200 307.600 C 399.200 307.334,343.400 307.200,232.600 307.200 C 121.800 307.200,66.000 307.334,66.000 307.600 M0.000 323.600 C 0.000 323.863,11.067 324.000,32.400 324.000 C 53.733 324.000,64.800 323.863,64.800 323.600 C 64.800 323.337,53.733 323.200,32.400 323.200 C 11.067 323.200,0.000 323.337,0.000 323.600 M66.000 323.600 C 66.000 323.866,121.800 324.000,232.600 324.000 C 343.400 324.000,399.200 323.866,399.200 323.600 C 399.200 323.334,343.400 323.200,232.600 323.200 C 121.800 323.200,66.000 323.334,66.000 323.600 M15.930 339.900 C 24.801 339.960,39.201 339.960,47.930 339.900 C 56.658 339.840,49.400 339.791,31.800 339.791 C 14.200 339.791,7.058 339.840,15.930 339.900 M149.933 339.900 C 195.766 339.956,270.646 339.956,316.333 339.900 C 362.020 339.844,324.520 339.798,233.000 339.798 C 141.480 339.798,104.100 339.844,149.933 339.900 M0.000 372.000 C 0.000 372.263,10.859 372.400,31.776 372.400 C 52.529 372.400,63.639 372.261,63.800 372.000 C 63.964 371.735,53.271 371.600,32.024 371.600 C 10.941 371.600,0.000 371.737,0.000 372.000 M66.000 371.998 C 66.000 372.262,122.330 372.397,232.600 372.399 C 343.663 372.401,399.200 372.268,399.200 372.001 C 399.200 371.734,343.661 371.600,232.600 371.600 C 122.328 371.600,66.000 371.735,66.000 371.998 M16.100 388.300 C 25.065 388.360,39.735 388.360,48.700 388.300 C 57.665 388.240,50.330 388.191,32.400 388.191 C 14.470 388.191,7.135 388.240,16.100 388.300 M149.067 388.300 C 194.864 388.356,269.924 388.356,315.867 388.300 C 361.810 388.244,324.340 388.198,232.600 388.198 C 140.860 388.198,103.270 388.244,149.067 388.300 M16.100 404.300 C 25.065 404.360,39.735 404.360,48.700 404.300 C 57.665 404.240,50.330 404.191,32.400 404.191 C 14.470 404.191,7.135 404.240,16.100 404.300 M149.067 404.300 C 194.864 404.356,269.924 404.356,315.867 404.300 C 361.810 404.244,324.340 404.198,232.600 404.198 C 140.860 404.198,103.270 404.244,149.067 404.300 M16.100 420.300 C 25.065 420.360,39.735 420.360,48.700 420.300 C 57.665 420.240,50.330 420.191,32.400 420.191 C 14.470 420.191,7.135 420.240,16.100 420.300 M149.067 420.300 C 194.864 420.356,269.924 420.356,315.867 420.300 C 361.810 420.244,324.340 420.198,232.600 420.198 C 140.860 420.198,103.270 420.244,149.067 420.300 " stroke="none" fill="#b4e6fc" fill-rule="evenodd"></path><path id="path2" d="M65.200 218.200 C 65.200 338.283,65.290 436.444,65.399 436.334 C 65.661 436.072,65.663 0.330,65.401 0.068 C 65.291 -0.043,65.200 98.117,65.200 218.200 " stroke="none" fill="#d98485" fill-rule="evenodd"></path><path id="path3" d="M0.000 0.400 C 0.000 0.663,11.067 0.800,32.400 0.800 C 53.733 0.800,64.800 0.663,64.800 0.400 C 64.800 0.137,53.733 0.000,32.400 0.000 C 11.067 0.000,0.000 0.137,0.000 0.400 M66.000 0.400 C 66.000 0.666,121.900 0.833,232.700 0.899 L 399.400 0.999 232.600 1.200 L 65.800 1.401 232.433 1.501 C 324.082 1.555,399.174 1.492,399.306 1.361 C 400.697 -0.030,404.434 0.000,232.557 0.000 C 121.786 0.000,66.000 0.134,66.000 0.400 M16.100 1.500 C 25.065 1.560,39.735 1.560,48.700 1.500 C 57.665 1.440,50.330 1.391,32.400 1.391 C 14.470 1.391,7.135 1.440,16.100 1.500 M16.100 16.700 C 25.065 16.760,39.735 16.760,48.700 16.700 C 57.665 16.640,50.330 16.591,32.400 16.591 C 14.470 16.591,7.135 16.640,16.100 16.700 M232.600 16.800 L 399.400 17.001 232.600 17.201 L 65.800 17.401 232.600 17.401 C 343.533 17.400,399.400 17.266,399.400 17.000 C 399.400 16.734,343.533 16.600,232.600 16.599 L 65.800 16.598 232.600 16.800 M16.100 17.500 C 25.065 17.560,39.735 17.560,48.700 17.500 C 57.665 17.440,50.330 17.391,32.400 17.391 C 14.470 17.391,7.135 17.440,16.100 17.500 M16.100 32.700 C 25.065 32.760,39.735 32.760,48.700 32.700 C 57.665 32.640,50.330 32.591,32.400 32.591 C 14.470 32.591,7.135 32.640,16.100 32.700 M232.600 32.800 L 399.400 33.001 232.700 33.101 C 121.900 33.167,66.000 33.334,66.000 33.600 C 66.000 33.866,121.786 34.000,232.557 34.000 C 404.434 34.000,400.697 34.030,399.306 32.639 C 399.174 32.508,324.082 32.445,232.433 32.499 L 65.800 32.599 232.600 32.800 M0.000 33.600 C 0.000 33.863,11.067 34.000,32.400 34.000 C 53.733 34.000,64.800 33.863,64.800 33.600 C 64.800 33.337,53.733 33.200,32.400 33.200 C 11.067 33.200,0.000 33.337,0.000 33.600 M32.200 48.800 L -0.200 49.007 32.300 49.104 C 53.764 49.167,64.800 49.064,64.800 48.800 C 64.800 48.580,64.755 48.443,64.700 48.496 C 64.645 48.549,50.020 48.686,32.200 48.800 M232.600 49.200 L 399.400 49.401 232.600 49.601 L 65.800 49.801 232.600 49.801 C 343.533 49.800,399.400 49.666,399.400 49.400 C 399.400 49.134,343.533 49.000,232.600 48.999 L 65.800 48.998 232.600 49.200 M16.100 49.900 C 25.065 49.960,39.735 49.960,48.700 49.900 C 57.665 49.840,50.330 49.791,32.400 49.791 C 14.470 49.791,7.135 49.840,16.100 49.900 M16.100 65.100 C 25.065 65.160,39.735 65.160,48.700 65.100 C 57.665 65.040,50.330 64.991,32.400 64.991 C 14.470 64.991,7.135 65.040,16.100 65.100 M232.600 65.200 L 399.400 65.401 232.900 65.601 L 66.400 65.801 232.800 65.801 C 343.399 65.800,399.234 65.666,399.300 65.400 C 399.367 65.134,343.600 65.000,232.600 64.999 L 65.800 64.998 232.600 65.200 M16.130 65.900 C 25.111 65.960,39.691 65.960,48.530 65.900 C 57.368 65.840,50.020 65.791,32.200 65.791 C 14.380 65.791,7.148 65.840,16.130 65.900 M232.600 81.600 L 65.800 81.801 232.476 81.901 C 343.270 81.967,399.236 81.866,399.400 81.600 C 399.536 81.380,399.592 81.245,399.524 81.299 C 399.456 81.354,324.340 81.489,232.600 81.600 M16.100 81.900 C 25.065 81.960,39.735 81.960,48.700 81.900 C 57.665 81.840,50.330 81.791,32.400 81.791 C 14.470 81.791,7.135 81.840,16.100 81.900 M-0.000 97.595 C -0.000 97.852,11.392 98.027,32.400 98.095 C 58.109 98.178,64.800 98.097,64.800 97.700 C 64.800 97.304,58.053 97.200,32.400 97.200 C 11.321 97.200,-0.000 97.338,-0.000 97.595 M66.000 97.600 C 66.000 97.866,121.800 98.000,232.600 98.000 C 343.400 98.000,399.200 97.866,399.200 97.600 C 399.200 97.334,343.400 97.200,232.600 97.200 C 121.800 97.200,66.000 97.334,66.000 97.600 M31.800 113.595 L 63.800 113.795 31.800 114.001 L -0.200 114.207 32.287 114.304 C 61.027 114.389,64.748 114.331,64.545 113.800 C 64.342 113.272,60.422 113.212,32.057 113.298 L -0.200 113.395 31.800 113.595 M66.255 113.800 C 66.051 114.333,84.683 114.389,232.713 114.301 L 399.400 114.201 233.000 114.000 L 66.600 113.799 233.000 113.599 L 399.400 113.399 232.943 113.300 C 85.289 113.211,66.460 113.268,66.255 113.800 M0.062 129.395 C 0.327 129.660,64.459 129.674,64.724 129.409 C 64.839 129.294,50.293 129.200,32.400 129.200 C 14.507 129.200,-0.045 129.288,0.062 129.395 M149.067 129.500 C 194.864 129.556,269.924 129.556,315.867 129.500 C 361.810 129.444,324.340 129.398,232.600 129.398 C 140.860 129.398,103.270 129.444,149.067 129.500 M16.130 161.900 C 25.111 161.960,39.691 161.960,48.530 161.900 C 57.368 161.840,50.020 161.791,32.200 161.791 C 14.380 161.791,7.148 161.840,16.130 161.900 M232.600 162.000 L 399.400 162.201 232.600 162.401 L 65.800 162.601 232.600 162.601 C 343.533 162.600,399.400 162.466,399.400 162.200 C 399.400 161.934,343.533 161.800,232.600 161.799 L 65.800 161.798 232.600 162.000 M16.100 162.700 C 25.065 162.760,39.735 162.760,48.700 162.700 C 57.665 162.640,50.330 162.591,32.400 162.591 C 14.470 162.591,7.135 162.640,16.100 162.700 M0.000 178.000 C 0.000 178.553,64.259 178.553,64.600 178.000 C 64.764 177.735,53.937 177.600,32.424 177.600 C 11.075 177.600,0.000 177.737,0.000 178.000 M66.000 178.000 C 66.000 178.266,121.900 178.433,232.700 178.499 L 399.400 178.599 232.600 178.800 L 65.800 179.001 232.433 179.101 C 324.082 179.155,399.174 179.092,399.306 178.961 C 400.697 177.570,404.434 177.600,232.557 177.600 C 121.786 177.600,66.000 177.734,66.000 178.000 M16.100 179.100 C 25.065 179.160,39.735 179.160,48.700 179.100 C 57.665 179.040,50.330 178.991,32.400 178.991 C 14.470 178.991,7.135 179.040,16.100 179.100 M16.100 194.300 C 25.065 194.360,39.735 194.360,48.700 194.300 C 57.665 194.240,50.330 194.191,32.400 194.191 C 14.470 194.191,7.135 194.240,16.100 194.300 M232.600 194.400 L 399.400 194.601 232.600 194.801 L 65.800 195.001 232.600 195.001 C 343.533 195.000,399.400 194.866,399.400 194.600 C 399.400 194.334,343.533 194.200,232.600 194.199 L 65.800 194.198 232.600 194.400 M16.100 195.100 C 25.065 195.160,39.735 195.160,48.700 195.100 C 57.665 195.040,50.330 194.991,32.400 194.991 C 14.470 194.991,7.135 195.040,16.100 195.100 M16.100 210.300 C 25.065 210.360,39.735 210.360,48.700 210.300 C 57.665 210.240,50.330 210.191,32.400 210.191 C 14.470 210.191,7.135 210.240,16.100 210.300 M232.600 210.400 L 399.400 210.601 232.600 210.801 L 65.800 211.001 232.600 211.001 C 343.533 211.000,399.400 210.866,399.400 210.600 C 399.400 210.334,343.533 210.200,232.600 210.199 L 65.800 210.198 232.600 210.400 M16.100 211.100 C 25.065 211.160,39.735 211.160,48.700 211.100 C 57.665 211.040,50.330 210.991,32.400 210.991 C 14.470 210.991,7.135 211.040,16.100 211.100 M0.000 226.600 C 0.000 227.128,3.859 227.200,32.333 227.200 C 60.807 227.200,64.667 227.128,64.667 226.600 C 64.667 226.072,60.807 226.000,32.333 226.000 C 3.859 226.000,0.000 226.072,0.000 226.600 M66.000 226.600 C 66.000 227.132,84.778 227.200,232.600 227.200 C 380.422 227.200,399.200 227.132,399.200 226.600 C 399.200 226.068,380.422 226.000,232.600 226.000 C 84.778 226.000,66.000 226.068,66.000 226.600 M32.000 242.400 L 64.200 242.607 32.100 242.704 C 11.031 242.767,0.000 242.937,0.000 243.200 C 0.000 243.463,11.038 243.600,32.314 243.600 C 64.362 243.600,64.629 243.593,64.629 242.800 C 64.629 242.006,64.394 242.001,32.214 242.096 L -0.200 242.193 32.000 242.400 M149.067 242.300 C 194.864 242.356,269.924 242.356,315.867 242.300 C 361.810 242.244,324.340 242.198,232.600 242.198 C 140.860 242.198,103.270 242.244,149.067 242.300 M66.000 243.200 C 66.000 243.466,121.800 243.600,232.600 243.600 C 343.400 243.600,399.200 243.466,399.200 243.200 C 399.200 242.934,343.400 242.800,232.600 242.800 C 121.800 242.800,66.000 242.934,66.000 243.200 M16.100 258.700 C 25.065 258.760,39.735 258.760,48.700 258.700 C 57.665 258.640,50.330 258.591,32.400 258.591 C 14.470 258.591,7.135 258.640,16.100 258.700 M232.600 258.800 L 399.400 259.001 232.600 259.201 L 65.800 259.401 232.600 259.401 C 343.533 259.400,399.400 259.266,399.400 259.000 C 399.400 258.734,343.533 258.600,232.600 258.599 L 65.800 258.598 232.600 258.800 M16.130 259.500 C 25.111 259.560,39.691 259.560,48.530 259.500 C 57.368 259.440,50.020 259.391,32.200 259.391 C 14.380 259.391,7.148 259.440,16.130 259.500 M232.600 275.200 L 65.800 275.401 232.476 275.501 C 343.270 275.567,399.236 275.466,399.400 275.200 C 399.536 274.980,399.592 274.845,399.524 274.899 C 399.456 274.954,324.340 275.089,232.600 275.200 M16.130 275.500 C 25.111 275.560,39.691 275.560,48.530 275.500 C 57.368 275.440,50.020 275.391,32.200 275.391 C 14.380 275.391,7.148 275.440,16.130 275.500 M232.700 291.100 C 122.033 291.167,66.000 291.335,66.000 291.600 C 66.000 292.335,399.063 292.134,399.345 291.400 C 399.471 291.070,399.536 290.845,399.487 290.900 C 399.439 290.954,324.385 291.044,232.700 291.100 M0.000 291.600 C 0.000 291.863,11.075 292.000,32.424 292.000 C 53.937 292.000,64.764 291.865,64.600 291.600 C 64.259 291.047,0.000 291.047,0.000 291.600 M16.100 307.100 C 25.065 307.160,39.735 307.160,48.700 307.100 C 57.665 307.040,50.330 306.991,32.400 306.991 C 14.470 306.991,7.135 307.040,16.100 307.100 M149.067 307.100 C 194.864 307.156,269.924 307.156,315.867 307.100 C 361.810 307.044,324.340 306.998,232.600 306.998 C 140.860 306.998,103.270 307.044,149.067 307.100 M8.800 339.491 C 31.880 339.765,64.400 339.770,64.400 339.500 C 64.400 339.335,49.865 339.241,32.100 339.292 C 14.335 339.343,3.850 339.432,8.800 339.491 M66.069 339.402 C 66.331 339.664,398.872 339.661,399.134 339.399 C 399.244 339.290,324.303 339.200,232.600 339.200 C 140.897 339.200,65.958 339.291,66.069 339.402 M0.000 355.800 C 0.000 356.328,3.867 356.400,32.400 356.400 C 60.933 356.400,64.800 356.328,64.800 355.800 C 64.800 355.272,60.933 355.200,32.400 355.200 C 3.867 355.200,0.000 355.272,0.000 355.800 M66.000 355.800 C 66.000 356.332,84.778 356.400,232.600 356.400 C 380.422 356.400,399.200 356.332,399.200 355.800 C 399.200 355.268,380.422 355.200,232.600 355.200 C 84.778 355.200,66.000 355.268,66.000 355.800 M31.922 371.500 C 50.538 371.561,63.952 371.754,63.824 371.960 C 63.704 372.156,63.835 372.405,64.117 372.513 C 64.421 372.629,64.629 372.403,64.629 371.955 C 64.629 371.221,63.746 371.203,32.214 371.298 L -0.200 371.395 31.922 371.500 M149.067 371.500 C 194.864 371.556,269.924 371.556,315.867 371.500 C 361.810 371.444,324.340 371.398,232.600 371.398 C 140.860 371.398,103.270 371.444,149.067 371.500 M16.100 387.900 C 25.065 387.960,39.735 387.960,48.700 387.900 C 57.665 387.840,50.330 387.791,32.400 387.791 C 14.470 387.791,7.135 387.840,16.100 387.900 M232.600 388.000 L 399.400 388.201 232.600 388.401 L 65.800 388.601 232.600 388.601 C 343.533 388.600,399.400 388.466,399.400 388.200 C 399.400 387.934,343.533 387.800,232.600 387.799 L 65.800 387.798 232.600 388.000 M16.100 388.700 C 25.065 388.760,39.735 388.760,48.700 388.700 C 57.665 388.640,50.330 388.591,32.400 388.591 C 14.470 388.591,7.135 388.640,16.100 388.700 M16.100 403.900 C 25.065 403.960,39.735 403.960,48.700 403.900 C 57.665 403.840,50.330 403.791,32.400 403.791 C 14.470 403.791,7.135 403.840,16.100 403.900 M232.600 404.000 L 399.400 404.201 232.600 404.401 L 65.800 404.601 232.600 404.601 C 343.533 404.600,399.400 404.466,399.400 404.200 C 399.400 403.934,343.533 403.800,232.600 403.799 L 65.800 403.798 232.600 404.000 M16.100 404.700 C 25.065 404.760,39.735 404.760,48.700 404.700 C 57.665 404.640,50.330 404.591,32.400 404.591 C 14.470 404.591,7.135 404.640,16.100 404.700 M16.100 419.900 C 25.065 419.960,39.735 419.960,48.700 419.900 C 57.665 419.840,50.330 419.791,32.400 419.791 C 14.470 419.791,7.135 419.840,16.100 419.900 M232.600 420.000 L 399.400 420.201 232.700 420.301 C 121.900 420.367,66.000 420.534,66.000 420.800 C 66.000 421.066,121.786 421.200,232.557 421.200 C 404.434 421.200,400.697 421.230,399.306 419.839 C 399.174 419.708,324.082 419.645,232.433 419.699 L 65.800 419.799 232.600 420.000 M0.000 420.800 C 0.000 421.063,11.067 421.200,32.400 421.200 C 53.733 421.200,64.800 421.063,64.800 420.800 C 64.800 420.537,53.733 420.400,32.400 420.400 C 11.067 420.400,0.000 420.537,0.000 420.800 M32.200 436.000 L -0.200 436.207 32.300 436.304 C 53.764 436.367,64.800 436.264,64.800 436.000 C 64.800 435.780,64.755 435.643,64.700 435.696 C 64.645 435.749,50.020 435.886,32.200 436.000 M149.067 436.300 C 194.864 436.356,269.924 436.356,315.867 436.300 C 361.810 436.244,324.340 436.198,232.600 436.198 C 140.860 436.198,103.270 436.244,149.067 436.300 " stroke="none" fill="#d6f1fc" fill-rule="evenodd"></path><path id="path4" d="M64.967 9.000 C 64.967 13.180,65.026 14.836,65.098 12.679 C 65.171 10.523,65.170 7.103,65.098 5.079 C 65.025 3.056,64.966 4.820,64.967 9.000 M64.967 25.000 C 64.967 29.180,65.026 30.836,65.098 28.679 C 65.171 26.523,65.170 23.103,65.098 21.079 C 65.025 19.056,64.966 20.820,64.967 25.000 M64.966 41.200 C 64.966 45.270,65.025 46.935,65.098 44.900 C 65.171 42.865,65.171 39.535,65.098 37.500 C 65.025 35.465,64.966 37.130,64.966 41.200 M64.967 57.400 C 64.967 61.580,65.026 63.236,65.098 61.079 C 65.171 58.923,65.170 55.503,65.098 53.479 C 65.025 51.456,64.966 53.220,64.967 57.400 M64.967 73.400 C 64.967 77.580,65.026 79.236,65.098 77.079 C 65.171 74.923,65.170 71.503,65.098 69.479 C 65.025 67.456,64.966 69.220,64.967 73.400 M64.967 89.600 C 64.967 93.890,65.026 95.645,65.098 93.500 C 65.170 91.355,65.170 87.845,65.098 85.700 C 65.026 83.555,64.967 85.310,64.967 89.600 M64.967 105.800 C 64.967 109.980,65.026 111.636,65.098 109.479 C 65.171 107.323,65.170 103.903,65.098 101.879 C 65.025 99.856,64.966 101.620,64.967 105.800 M64.967 121.800 C 64.967 125.980,65.026 127.636,65.098 125.479 C 65.171 123.323,65.170 119.903,65.098 117.879 C 65.025 115.856,64.966 117.620,64.967 121.800 M64.967 138.000 C 64.967 142.290,65.026 144.045,65.098 141.900 C 65.170 139.755,65.170 136.245,65.098 134.100 C 65.026 131.955,64.967 133.710,64.967 138.000 M64.967 154.200 C 64.967 158.380,65.026 160.036,65.098 157.879 C 65.171 155.723,65.170 152.303,65.098 150.279 C 65.025 148.256,64.966 150.020,64.967 154.200 M64.966 170.400 C 64.966 174.470,65.025 176.135,65.098 174.100 C 65.171 172.065,65.171 168.735,65.098 166.700 C 65.025 164.665,64.966 166.330,64.966 170.400 M64.967 186.600 C 64.967 190.780,65.026 192.436,65.098 190.279 C 65.171 188.123,65.170 184.703,65.098 182.679 C 65.025 180.656,64.966 182.420,64.967 186.600 M64.967 202.600 C 64.967 206.780,65.026 208.436,65.098 206.279 C 65.171 204.123,65.170 200.703,65.098 198.679 C 65.025 196.656,64.966 198.420,64.967 202.600 M64.967 218.600 C 64.967 222.780,65.026 224.436,65.098 222.279 C 65.171 220.123,65.170 216.703,65.098 214.679 C 65.025 212.656,64.966 214.420,64.967 218.600 M64.966 234.800 C 64.966 238.870,65.025 240.535,65.098 238.500 C 65.171 236.465,65.171 233.135,65.098 231.100 C 65.025 229.065,64.966 230.730,64.966 234.800 M64.967 251.000 C 64.967 255.180,65.026 256.836,65.098 254.679 C 65.171 252.523,65.170 249.103,65.098 247.079 C 65.025 245.056,64.966 246.820,64.967 251.000 M64.967 267.000 C 64.967 271.180,65.026 272.836,65.098 270.679 C 65.171 268.523,65.170 265.103,65.098 263.079 C 65.025 261.056,64.966 262.820,64.967 267.000 M64.967 283.000 C 64.967 287.180,65.026 288.836,65.098 286.679 C 65.171 284.523,65.170 281.103,65.098 279.079 C 65.025 277.056,64.966 278.820,64.967 283.000 M64.967 299.400 C 64.967 303.580,65.026 305.236,65.098 303.079 C 65.171 300.923,65.170 297.503,65.098 295.479 C 65.025 293.456,64.966 295.220,64.967 299.400 M64.967 315.600 C 64.967 319.890,65.026 321.645,65.098 319.500 C 65.170 317.355,65.170 313.845,65.098 311.700 C 65.026 309.555,64.967 311.310,64.967 315.600 M64.967 331.600 C 64.967 335.890,65.026 337.645,65.098 335.500 C 65.170 333.355,65.170 329.845,65.098 327.700 C 65.026 325.555,64.967 327.310,64.967 331.600 M64.967 347.600 C 64.967 351.890,65.026 353.645,65.098 351.500 C 65.170 349.355,65.170 345.845,65.098 343.700 C 65.026 341.555,64.967 343.310,64.967 347.600 M64.967 363.800 C 64.967 367.980,65.026 369.636,65.098 367.479 C 65.171 365.323,65.170 361.903,65.098 359.879 C 65.025 357.856,64.966 359.620,64.967 363.800 M64.966 380.000 C 64.966 384.070,65.025 385.735,65.098 383.700 C 65.171 381.665,65.171 378.335,65.098 376.300 C 65.025 374.265,64.966 375.930,64.966 380.000 M64.967 396.200 C 64.967 400.380,65.026 402.036,65.098 399.879 C 65.171 397.723,65.170 394.303,65.098 392.279 C 65.025 390.256,64.966 392.020,64.967 396.200 M64.967 412.200 C 64.967 416.380,65.026 418.036,65.098 415.879 C 65.171 413.723,65.170 410.303,65.098 408.279 C 65.025 406.256,64.966 408.020,64.967 412.200 M64.966 428.400 C 64.966 432.470,65.025 434.135,65.098 432.100 C 65.171 430.065,65.171 426.735,65.098 424.700 C 65.025 422.665,64.966 424.330,64.966 428.400 " stroke="none" fill="#f4ccd4" fill-rule="evenodd"></path><path id="path5" d="M65.770 8.400 C 65.770 13.130,65.828 15.065,65.898 12.700 C 65.969 10.335,65.969 6.465,65.898 4.100 C 65.828 1.735,65.770 3.670,65.770 8.400 M65.798 226.800 C 65.798 342.190,65.844 389.395,65.900 331.700 C 65.956 274.005,65.956 179.595,65.900 121.900 C 65.844 64.205,65.798 111.410,65.798 226.800 " stroke="none" fill="#c8c2cc" fill-rule="evenodd"></path><path id="path6" d="" stroke="none" fill="#f0ec100" fill-rule="evenodd"></path><path id="path7" d="" stroke="none" fill="#f0ec100" fill-rule="evenodd"></path><path id="path8" d="" stroke="none" fill="#f0ec100" fill-rule="evenodd"></path></g></svg>